<?xml version="1.0" standalone="no"?>
<!DOCTYPE svg PUBLIC "-//W3C//DTD SVG 20010904//EN"
 "http://www.w3.org/TR/2001/REC-SVG-20010904/DTD/svg10.dtd">
<svg version="1.0" xmlns="http://www.w3.org/2000/svg"
 width="1024.000000pt" height="1024.000000pt" viewBox="0 0 1024.000000 1024.000000"
 preserveAspectRatio="xMidYMid meet">
<metadata>
Created by potrace 1.14, written by Peter Selinger 2001-2017
</metadata>
<g transform="translate(0.000000,1024.000000) scale(0.100000,-0.100000)"
fill="#000000" stroke="none">
<path d="M5721 5779 c-29 -5 -81 -24 -114 -41 -117 -63 -180 -182 -202 -385
l-7 -62 -46 -3 -47 -3 0 -40 0 -40 48 -3 47 -3 0 -340 0 -339 -45 0 -45 0 0
-45 0 -45 335 0 335 0 0 45 0 45 -100 0 c-95 0 -100 1 -105 23 -3 12 -4 164
-3 337 l3 315 110 5 110 5 3 42 3 42 -113 3 -113 3 0 165 c1 182 10 226 51
236 35 9 56 -2 52 -28 -2 -18 -11 -24 -34 -26 -26 -3 -33 -8 -38 -34 -26 -132
31 -211 154 -211 74 0 121 27 150 89 22 45 24 115 6 157 -7 14 -3 17 18 17
l26 0 0 -570 0 -570 -45 0 -45 0 0 -45 0 -45 275 0 275 0 0 45 0 45 -45 0 -45
0 0 615 0 615 -234 0 c-161 0 -235 -3 -238 -11 -2 -7 -16 -3 -38 9 -62 37
-187 49 -299 31z"/>
<path d="M2380 5705 l0 -45 45 0 45 0 0 -570 0 -570 -45 0 -45 0 0 -45 0 -45
535 0 535 0 0 45 0 45 -45 0 -45 0 0 233 c0 127 -5 265 -10 304 -22 168 -112
245 -285 245 -83 0 -136 -14 -182 -49 l-33 -24 -2 258 -3 258 -232 3 -233 2 0
-45z m594 -561 c3 -9 6 -153 6 -320 l0 -304 -65 0 -65 0 0 253 c0 138 4 267
10 286 21 76 96 132 114 85z"/>
<path d="M4825 5551 c-82 -21 -162 -41 -177 -44 l-28 -7 0 -105 0 -105 -45 0
-45 0 0 -45 0 -45 45 0 45 0 0 -278 c0 -326 6 -361 74 -428 52 -52 121 -74
233 -75 127 -1 195 25 247 94 31 41 66 134 66 176 0 25 -4 30 -36 36 -38 7
-54 -3 -54 -34 0 -34 -26 -95 -51 -122 -32 -34 -73 -39 -89 -10 -6 12 -10 135
-10 330 l0 311 105 0 105 0 0 45 0 45 -107 0 -108 0 0 147 c0 89 -4 147 -10
148 -5 2 -77 -14 -160 -34z"/>
<path d="M1871 5300 c-123 -17 -210 -59 -280 -135 -121 -131 -144 -361 -55
-542 75 -155 230 -223 453 -200 159 16 255 94 301 245 11 36 18 67 15 70 -3 3
-24 6 -47 6 -39 1 -42 -1 -48 -29 -10 -44 -44 -106 -77 -137 -78 -74 -200 -62
-239 25 -17 37 -19 68 -19 272 0 214 2 233 21 276 15 32 30 49 50 56 43 15 74
0 74 -35 0 -24 -5 -30 -29 -35 -32 -7 -41 -27 -41 -95 0 -98 73 -166 177 -165
91 1 155 58 169 151 15 99 -33 187 -126 234 -73 36 -194 52 -299 38z"/>
<path d="M3870 5299 c-102 -12 -165 -35 -212 -77 -48 -44 -68 -89 -68 -156 0
-70 26 -115 80 -143 120 -62 272 15 269 137 -1 65 -12 94 -37 105 -34 15 -25
49 14 53 46 5 56 -29 58 -195 l1 -138 -105 -6 c-171 -10 -271 -55 -305 -136
-21 -50 -19 -158 4 -209 35 -76 118 -115 249 -115 65 0 93 4 128 22 25 12 48
28 51 35 7 20 27 17 47 -5 10 -11 39 -27 64 -35 52 -18 189 -21 241 -6 78 22
129 107 138 228 l6 72 -40 0 -40 0 -11 -76 c-11 -81 -26 -110 -42 -84 -5 8
-10 115 -10 237 0 122 -5 246 -11 275 -15 71 -52 133 -97 163 -71 47 -231 70
-372 54z m108 -607 c-7 -136 -39 -192 -52 -91 -12 87 13 189 46 189 7 0 9 -30
6 -98z"/>
<path d="M7140 5303 c-212 -16 -368 -136 -410 -315 -14 -62 -12 -204 4 -263
29 -111 105 -213 188 -256 91 -47 268 -65 390 -40 119 25 212 112 251 235 19
56 13 66 -38 66 -27 0 -33 -7 -63 -70 -37 -80 -76 -112 -155 -130 -85 -18
-147 12 -175 85 -13 31 -31 157 -32 213 l0 32 234 0 c270 0 245 -13 234 118
-15 172 -101 277 -253 310 -59 13 -126 18 -175 15z m60 -117 c5 -14 12 -70 16
-125 l7 -101 -59 0 -59 0 5 102 c3 57 11 113 18 126 18 31 60 30 72 -2z"/>
<path d="M7610 5245 l0 -44 58 -3 57 -3 117 -184 c67 -105 114 -189 110 -196
-4 -6 -47 -75 -97 -153 l-90 -142 -62 0 -63 0 0 -45 0 -45 163 2 162 3 0 40
c0 40 -1 40 -42 45 l-42 5 60 95 c32 51 63 98 68 103 5 5 35 -34 70 -93 33
-55 61 -103 61 -105 0 -3 -20 -5 -45 -5 l-45 0 0 -45 0 -45 310 0 310 0 0 44
0 45 -51 3 -52 3 -123 194 c-68 107 -124 197 -124 200 0 4 43 67 95 141 l96
135 52 5 52 5 0 40 0 40 -155 0 -155 0 0 -40 c0 -40 0 -40 43 -43 23 -2 42 -6
42 -9 0 -10 -121 -173 -129 -173 -8 0 -111 163 -111 174 0 3 20 6 45 6 l45 0
0 45 0 45 -315 0 -315 0 0 -45z"/>
</g>
</svg>
